<?xml version="1.0" standalone="no"?>
<!DOCTYPE svg PUBLIC "-//W3C//DTD SVG 20010904//EN"
 "http://www.w3.org/TR/2001/REC-SVG-20010904/DTD/svg10.dtd">
<svg version="1.0" xmlns="http://www.w3.org/2000/svg"
 width="700.000000pt" height="700.000000pt" viewBox="0 0 700.000000 700.000000"
 preserveAspectRatio="xMidYMid meet">
<metadata>
Created by potrace 1.11, written by Peter Selinger 2001-2013
</metadata>
<g transform="translate(0.000000,700.000000) scale(0.100000,-0.100000)"
fill="#000000" stroke="none">
<path d="M3298 6705 c-2 -2 -37 -6 -79 -9 -42 -4 -86 -8 -97 -11 -12 -2 -47
-6 -79 -10 -50 -5 -107 -15 -223 -38 -138 -28 -400 -109 -525 -162 -16 -7 -55
-24 -85 -36 -88 -38 -298 -146 -346 -179 -25 -16 -47 -30 -49 -30 -15 0 -275
-186 -351 -250 -99 -85 -120 -103 -169 -150 -394 -375 -682 -830 -848 -1345
-39 -121 -80 -277 -96 -370 -6 -33 -13 -71 -16 -85 -3 -14 -7 -45 -10 -70 -3
-25 -7 -52 -10 -60 -25 -92 -26 -653 -1 -777 3 -12 7 -48 11 -80 3 -32 8 -65
10 -73 2 -8 6 -33 10 -55 8 -57 51 -234 81 -335 174 -579 507 -1095 964 -1494
260 -226 475 -364 825 -526 112 -52 377 -143 480 -166 6 -1 28 -6 50 -12 22
-6 51 -13 65 -16 14 -2 45 -9 70 -14 25 -6 68 -13 95 -16 45 -6 81 -12 140
-22 137 -25 612 -24 770 1 70 11 93 15 140 21 174 21 482 108 700 198 212 88
518 259 665 373 215 167 442 378 561 522 24 29 49 59 54 65 45 49 255 355 255
371 0 2 15 28 33 57 32 51 119 225 150 298 8 19 24 58 35 85 40 94 101 281
137 425 28 112 38 161 60 315 4 22 8 51 10 64 27 161 26 558 -1 791 -12 103
-34 223 -65 350 -13 52 -23 97 -24 100 -10 50 -77 245 -124 363 -125 312 -375
712 -586 933 -11 11 -36 39 -56 60 -379 409 -908 728 -1462 883 -113 32 -317
75 -402 86 -27 3 -63 8 -80 10 -102 14 -163 17 -362 20 -122 1 -223 1 -225 0z"/>
</g>
</svg>
