<svg version="1.1" xmlns="http://www.w3.org/2000/svg" xmlns:xlink="http://www.w3.org/1999/xlink" width="48" height="48"><defs><linearGradient x1="11.67153" y1="17.27538" x2="77.34066" y2="71.73681" gradientUnits="userSpaceOnUse" id="color-1"><stop offset="0" stop-color="#000000" stop-opacity="0.5"></stop><stop offset="1" stop-color="#000000" stop-opacity="0"></stop></linearGradient><filter id="dropshadow-base"><feColorMatrix type="matrix" values="0 0 0 0 0  0 0 0 0 0  0 0 0 0 0  0 0 0 .8 0"></feColorMatrix> <feOffset dx="0" dy="1"></feOffset> <feGaussianBlur stdDeviation="1"></feGaussianBlur> <feComposite in="SourceGraphic"></feComposite></filter><filter id="dropshadow-banner" x="-10%" y="-10%" width="120%" height="130%"><feColorMatrix type="matrix" values="0 0 0 0 0  0 0 0 0 0  0 0 0 0 0  0 0 0 .4 0"></feColorMatrix> <feOffset dx="0" dy="1"></feOffset> <feGaussianBlur stdDeviation="0.5"></feGaussianBlur> <feComposite in="SourceGraphic"></feComposite></filter></defs><g fill="none" fill-rule="nonzero" stroke="none" stroke-width="none" stroke-linecap="butt" stroke-linejoin="miter" stroke-miterlimit="10" stroke-dasharray="" stroke-dashoffset="0" font-family="none" font-weight="none" font-size="none" text-anchor="none" style="mix-blend-mode: normal"><path d="M2,24c0,-12.15026 9.84974,-22 22,-22c12.15026,0 22,9.84974 22,22c0,12.15026 -9.84974,22 -22,22c-12.15026,0 -22,-9.84974 -22,-22z" id="base 1 5" fill="#282833" stroke-width="1"></path><path d="M12.32998,30.06617c-0.40628,-0.40628 -0.65845,-0.96666 -0.65845,-1.58309c0,-1.23285 1.00869,-2.24154 2.24154,-2.24154c0.20174,0 0.39227,0.02241 0.5716,0.07846l5.11071,-5.0995c-0.05603,-0.17932 -0.07846,-0.38106 -0.07846,-0.5828c0,-1.23285 1.00869,-2.24154 2.24154,-2.24154c0.61642,0 1.17681,0.25217 1.58309,0.65845l0,0l4.81342,4.81342l3.76888,-3.7795c-0.05603,-0.17932 -0.07846,-0.36985 -0.07846,-0.5716c0,-1.23285 1.00869,-2.24154 2.24154,-2.24154c0.61642,0 1.17681,0.25217 1.58309,0.65845l9.98244,9.98244c-1.61903,9.01099 -8.7252,16.11715 -17.73618,17.73618z" fill="url(#color-1)" stroke-width="1"></path><path transform="translate(-5.58836,-5.58836) scale(1.23285,1.23285)" d="M34,20.36364c0,1 -0.81818,1.81818 -1.81818,1.81818c-0.16364,0 -0.31818,-0.01818 -0.46364,-0.06364l-3.23636,3.22727c0.04545,0.14545 0.06364,0.30909 0.06364,0.47273c0,1 -0.81818,1.81818 -1.81818,1.81818c-1,0 -1.81818,-0.81818 -1.81818,-1.81818c0,-0.16364 0.01818,-0.32727 0.06364,-0.47273l-2.31818,-2.31818c-0.14545,0.04545 -0.30909,0.06364 -0.47273,0.06364c-0.16364,0 -0.32727,-0.01818 -0.47273,-0.06364l-4.13636,4.14545c0.04545,0.14545 0.06364,0.3 0.06364,0.46364c0,1 -0.81818,1.81818 -1.81818,1.81818c-1,0 -1.81818,-0.81818 -1.81818,-1.81818c0,-1 0.81818,-1.81818 1.81818,-1.81818c0.16364,0 0.31818,0.01818 0.46364,0.06364l4.14545,-4.13636c-0.04545,-0.14545 -0.06364,-0.30909 -0.06364,-0.47273c0,-1 0.81818,-1.81818 1.81818,-1.81818c1,0 1.81818,0.81818 1.81818,1.81818c0,0.16364 -0.01818,0.32727 -0.06364,0.47273l2.31818,2.31818c0.14545,-0.04545 0.30909,-0.06364 0.47273,-0.06364c0.16364,0 0.32727,0.01818 0.47273,0.06364l3.22727,-3.23636c-0.04545,-0.14545 -0.06364,-0.3 -0.06364,-0.46364c0,-1 0.81818,-1.81818 1.81818,-1.81818c1,0 1.81818,0.81818 1.81818,1.81818z" fill="none" stroke-width="0"></path><path d="M36.32848,19.51692c0,1.23285 -1.00869,2.24154 -2.24154,2.24154c-0.20174,0 -0.39227,-0.02242 -0.57159,-0.07845l-3.98994,3.97874c0.05604,0.17932 0.07845,0.38106 0.07845,0.5828c0,1.23285 -1.00869,2.24154 -2.24154,2.24154c-1.23285,0 -2.24154,-1.00869 -2.24154,-2.24154c0,-0.20174 0.02242,-0.40348 0.07845,-0.5828l-2.85797,-2.85797c-0.17932,0.05604 -0.38106,0.07845 -0.5828,0.07845c-0.20174,0 -0.40348,-0.02242 -0.5828,-0.07845l-5.09951,5.11072c0.05604,0.17932 0.07845,0.36985 0.07845,0.57159c0,1.23285 -1.00869,2.24154 -2.24154,2.24154c-1.23285,0 -2.24154,-1.00869 -2.24154,-2.24154c0,-1.23285 1.00869,-2.24154 2.24154,-2.24154c0.20174,0 0.39227,0.02242 0.57159,0.07845l5.11072,-5.09951c-0.05604,-0.17932 -0.07845,-0.38106 -0.07845,-0.5828c0,-1.23285 1.00869,-2.24154 2.24154,-2.24154c1.23285,0 2.24154,1.00869 2.24154,2.24154c0,0.20174 -0.02242,0.40348 -0.07845,0.5828l2.85797,2.85797c0.17932,-0.05604 0.38106,-0.07845 0.5828,-0.07845c0.20174,0 0.40348,0.02242 0.5828,0.07845l3.97874,-3.98994c-0.05604,-0.17932 -0.07845,-0.36985 -0.07845,-0.57159c0,-1.23285 1.00869,-2.24154 2.24154,-2.24154c1.23285,0 2.24154,1.00869 2.24154,2.24154z" fill="#ffffff" stroke-width="0"></path><path d="M2,24c0,-12.15026 9.84974,-22 22,-22c12.15026,0 22,9.84974 22,22c0,12.15026 -9.84974,22 -22,22c-12.15026,0 -22,-9.84974 -22,-22z" id="base 1 1 1" fill="none" stroke-width="1"></path><g fill="#000000" stroke-width="1" font-family="Roboto, sans-serif" font-weight="400" font-size="14" text-anchor="start"></g><rect x="2" y="2" width="44" height="22" fill="none" stroke-width="1"></rect><path d="M2,24v-22h44v22z" fill="none" stroke-width="1"></path><path d="M2,24v-22h44v22z" fill="none" stroke-width="1"></path><path d="M2,24v-22h44v22z" fill="none" stroke-width="1"></path><path d="M2,24v-22h44v22z" fill="none" stroke-width="1"></path></g></svg>